<svg width="160" height="52" version="1.1" viewBox="0 0 160 52" xmlns="http://www.w3.org/2000/svg">
 <path d="m93 1-6.5826 50h62.583c5.54 0 10-4.46 10-10v-30c0-5.54-4.46-10-10-10z" fill="#4d4d4d"/>
 <path d="m11 1c-5.54 0-10 4.46-10 10v30c0 5.54 4.46 10 10 10h75.417l6.5826-50z" fill="#a00"/>
 <g fill="#fff">
  <path d="m17.013 29.466-0.09382 0.10029c-0.8563 0.915-1.3771 1.9842-1.5809 3.2453-0.05063 0.31345-0.07031 1.0505-0.03743 1.4021 0.04237 0.45314 0.13204 0.87263 0.28837 1.3494 0.21621 0.65936 0.57868 1.3206 1.0169 1.855 0.17314 0.21108 0.39627 0.45462 0.41605 0.45415 0.0065-1.61e-4 0.19906-0.18752 0.42783-0.41639l0.41593-0.41616-0.11507-0.1183c-0.61571-0.6332-1.0469-1.5109-1.2206-2.4845-0.05703-0.31962-0.07102-1.0005-0.02737-1.3345 0.13045-0.99866 0.54902-1.9099 1.2135-2.6421l0.13865-0.15285-0.42102-0.42067zm10.245 2.42e-4 -0.84179 0.84106 0.13309 0.14258c0.18048 0.19325 0.44388 0.54644 0.58358 0.78254 0.64619 1.0921 0.83675 2.3819 0.53063 3.5929-0.11536 0.45648-0.31158 0.92964-0.54914 1.3245-0.126 0.20942-0.4413 0.62239-0.5854 0.76669l-0.11334 0.11357 0.41986 0.4209 0.41986 0.42102 0.09208-0.08977c0.05067-0.04932 0.15393-0.16198 0.22946-0.25048 0.70902-0.8308 1.1863-1.8754 1.3562-2.9674 0.05755-0.37007 0.07194-1.1712 0.02784-1.5538-0.07945-0.68953-0.26496-1.3229-0.56912-1.9432-0.27536-0.56156-0.6179-1.059-1.0204-1.482zm-1.4175 1.4173-0.40761 0.40772-0.40772 0.40761 0.0744 0.08815c0.36326 0.43066 0.5696 0.83602 0.67945 1.3345 0.04936 0.22402 0.05966 0.72171 0.02023 0.9745-0.05417 0.34716-0.19446 0.73506-0.36983 1.0225-0.08619 0.14127-0.2914 0.41209-0.35654 0.47046-0.03945 0.03534-0.0388 0.0361 0.36186 0.44967 0.22072 0.22784 0.4066 0.41198 0.41316 0.40935 0.0066-0.0025 0.05419-0.05157 0.10583-0.10883 0.44114-0.48927 0.74806-1.0583 0.91318-1.6934 0.32166-1.2368-0.01046-2.616-0.86104-3.5757zm-7.3956 0.02045c-0.0248-0.0049-0.05596 0.03045-0.17457 0.16753-0.19749 0.22823-0.28125 0.34232-0.42043 0.57318-0.25167 0.41743-0.41952 0.87245-0.51356 1.3914-0.04099 0.22621-0.05749 0.80312-0.02981 1.0429 0.09567 0.82904 0.43151 1.5961 0.96011 2.1925l0.16649 0.18774 0.40357-0.41189 0.40368-0.41189-0.09266-0.10721c-0.32619-0.37726-0.54031-0.80658-0.65104-1.3057-0.05525-0.24892-0.05951-0.79881-0.0081-1.0534 0.10376-0.51369 0.33956-0.9952 0.65644-1.3405l0.11785-0.12836-0.37618-0.37318c-0.20693-0.20528-0.3942-0.38846-0.41616-0.40703-0.0099-0.0083-0.01739-0.01442-0.02565-0.01606zm1.3415 1.3181-0.04737 0.05673c-0.1542 0.18508-0.32988 0.55928-0.40668 0.86608-0.05534 0.22105-0.06974 0.66373-0.02911 0.89691 0.03503 0.20106 0.10689 0.43886 0.18451 0.61055 0.05763 0.12753 0.25548 0.43742 0.27925 0.43742 0.0076 0 0.11874-0.10605 0.2469-0.23569l0.23304-0.23569-0.03858-0.06239c-0.34897-0.56465-0.34515-1.2192 0.01029-1.7822l0.04691-0.0744-0.2395-0.2387zm4.7034 0.0093c-0.02625 0-0.461 0.44566-0.461 0.47253 0 0.01637 0.02221 0.06262 0.04945 0.10272 0.3111 0.45783 0.32788 1.1559 0.03985 1.6599l-0.08191 0.14349 0.22818 0.2387c0.1255 0.13131 0.23385 0.23935 0.24078 0.23997 7e-3 6.68e-4 0.04242-0.03959 0.07891-0.0893 0.0953-0.12982 0.21359-0.35574 0.27625-0.52763 0.22811-0.62579 0.1755-1.3365-0.14188-1.915-0.06826-0.12442-0.20946-0.32535-0.22865-0.32535zm-2.3097 0.12697c-0.11625 3.22e-4 -0.23306 0.01144-0.31876 0.0334-0.37189 0.09522-0.69475 0.35639-0.86759 0.70186-0.32399 0.6477-0.05506 1.4322 0.60589 1.7674 0.20194 0.10243 0.36178 0.1351 0.62136 0.12709 0.16647-0.0051 0.26254-0.01818 0.35966-0.04887 0.39652-0.12535 0.7137-0.43945 0.86122-0.85272 0.05964-0.16719 0.07545-0.54052 0.03052-0.72013-0.1193-0.47668-0.49459-0.85168-0.97687-0.97614-0.08344-0.02155-0.19916-0.03218-0.31541-0.03189zm-0.75595 3.1669-0.05245 0.40218c-0.0796 0.61019-0.24927 1.8972-0.34383 2.6075-0.1071 0.80452-0.27434 2.0739-0.34914 2.6501-0.03175 0.24466-0.06211 0.464-0.06736 0.48745l-0.0095 0.04252h1.4566l0.01029-0.06147c0.0057-0.03384 0.02284-0.15953 0.03824-0.27925s0.06627-0.50735 0.11299-0.86128c0.04671-0.35398 0.13234-1.0055 0.19028-1.448 0.14384-1.0986 0.27818-2.1196 0.37918-2.8802 0.04652-0.35041 0.08469-0.64212 0.08469-0.64825 0-0.0062-0.32627-0.01121-0.72499-0.01121z"/>
   <g transform="skewX(-7.5)" aria-label="podcast">
    <path d="m25.702 16.791q0-1.7805-0.88047-2.7392t-2.3479-0.95873q-0.82177 0-1.2914 0.0587-0.45002 0.0587-0.72394 0.13696v6.4176q0.33262 0.27392 0.95873 0.52828t1.3696 0.25436q0.78264 0 1.3305-0.27392 0.56741-0.29349 0.9196-0.78264 0.35219-0.50872 0.50872-1.174 0.15653-0.68481 0.15653-1.4674zm1.8979 0q0 1.1544-0.31306 2.1327-0.29349 0.9783-0.88047 1.6827t-1.4479 1.0957q-0.84134 0.39132-1.937 0.39132-0.88047 0-1.5653-0.23479-0.66524-0.23479-0.99787-0.45002v4.0697h-1.8196v-13.481q0.64568-0.15653 1.6044-0.33262 0.9783-0.19566 2.2501-0.19566 1.174 0 2.1131 0.37175t1.6044 1.0566 1.0174 1.6827q0.37175 0.9783 0.37175 2.211z"/>
    <path d="m39.144 16.771q0 1.2131-0.35219 2.1914t-0.99787 1.6827q-0.62611 0.70438-1.5066 1.0957-0.88047 0.37175-1.9175 0.37175t-1.9175-0.37175q-0.88047-0.39132-1.5261-1.0957-0.62611-0.70438-0.9783-1.6827t-0.35219-2.1914q0-1.1935 0.35219-2.1718 0.35219-0.99787 0.9783-1.7022 0.64568-0.70438 1.5261-1.0761 0.88047-0.39132 1.9175-0.39132t1.9175 0.39132q0.88047 0.37175 1.5066 1.0761 0.64568 0.70438 0.99787 1.7022 0.35219 0.9783 0.35219 2.1718zm-1.8979 0q0-1.7218-0.78264-2.7197-0.76307-1.0174-2.0936-1.0174t-2.1131 1.0174q-0.76307 0.99787-0.76307 2.7197t0.76307 2.7392q0.78264 0.99787 2.1131 0.99787t2.0936-0.99787q0.78264-1.0174 0.78264-2.7392z"/>
    <path d="m48.282 13.836q-0.33262-0.27392-0.95873-0.52828t-1.3696-0.25436q-0.78264 0-1.3501 0.29349-0.54785 0.27392-0.90004 0.78264-0.35219 0.48915-0.50872 1.174t-0.15653 1.4674q0 1.7805 0.88047 2.7588 0.88047 0.95873 2.3479 0.95873 0.74351 0 1.2327-0.0587 0.50872-0.07826 0.78264-0.15653zm0-6.8481 1.8196-0.31306v14.89q-0.62611 0.17609-1.6044 0.35219t-2.2501 0.17609q-1.174 0-2.1131-0.37175t-1.6044-1.0566-1.037-1.6631q-0.35219-0.99787-0.35219-2.2305 0-1.174 0.29349-2.1523 0.31306-0.9783 0.90004-1.6827t1.4283-1.0957q0.8609-0.39132 1.9566-0.39132 0.88047 0 1.5457 0.23479 0.68481 0.23479 1.0174 0.45002z"/>
    <path d="m57.654 22.093q-1.2327 0-2.1718-0.39132-0.9196-0.39132-1.5653-1.0957-0.62611-0.70438-0.93917-1.6631-0.31306-0.9783-0.31306-2.1523t0.33262-2.1523q0.35219-0.9783 0.9783-1.6827 0.62611-0.72394 1.5261-1.1153 0.9196-0.41089 2.0349-0.41089 0.68481 0 1.3696 0.1174t1.3109 0.37175l-0.41089 1.5457q-0.41089-0.19566-0.95873-0.31306-0.52828-0.1174-1.1348-0.1174-1.5261 0-2.3479 0.95873-0.80221 0.95873-0.80221 2.7979 0 0.82177 0.17609 1.5066 0.19566 0.68481 0.58698 1.174 0.41089 0.48915 1.037 0.76307 0.62611 0.25436 1.5261 0.25436 0.72394 0 1.3109-0.13696t0.9196-0.29349l0.25436 1.5261q-0.15653 0.09783-0.45002 0.19566-0.29349 0.07826-0.66524 0.13696-0.37175 0.07826-0.80221 0.1174-0.41089 0.0587-0.80221 0.0587z"/>
    <path d="m65.773 20.547q0.64568 0 1.1348-0.01957 0.50872-0.03913 0.84134-0.1174v-3.0327q-0.19566-0.09783-0.64568-0.15653-0.43045-0.07826-1.0566-0.07826-0.41089 0-0.88047 0.0587-0.45002 0.0587-0.84134 0.25436-0.37175 0.17609-0.62611 0.50872-0.25436 0.31306-0.25436 0.84134 0 0.9783 0.62611 1.3696 0.62611 0.37175 1.7022 0.37175zm-0.15653-9.1178q1.0957 0 1.8392 0.29349 0.76307 0.27392 1.2131 0.80221 0.46958 0.50872 0.66524 1.2327 0.19566 0.70438 0.19566 1.5653v6.359q-0.23479 0.03913-0.66524 0.1174-0.41089 0.0587-0.93917 0.1174-0.52828 0.0587-1.1544 0.09783-0.60655 0.0587-1.2131 0.0587-0.8609 0-1.5848-0.17609t-1.2522-0.54785q-0.52828-0.39132-0.82177-1.0174t-0.29349-1.5066q0-0.84134 0.33262-1.4479 0.35219-0.60655 0.93917-0.9783t1.3696-0.54785 1.6435-0.17609q0.27392 0 0.56741 0.03913 0.29349 0.01957 0.54785 0.07826 0.27392 0.03913 0.46958 0.07826t0.27392 0.0587v-0.50872q0-0.45002-0.09783-0.88047-0.09783-0.45002-0.35219-0.78264-0.25436-0.35219-0.70438-0.54785-0.43045-0.21523-1.1348-0.21523-0.90004 0-1.5848 0.13696-0.66524 0.1174-0.99787 0.25436l-0.21523-1.5066q0.35219-0.15653 1.174-0.29349 0.82177-0.15653 1.7805-0.15653z"/>
    <path d="m74.911 20.547q1.1153 0 1.6435-0.29349 0.54785-0.29349 0.54785-0.93917 0-0.66524-0.52828-1.0566t-1.7414-0.88047q-0.58698-0.23479-1.1348-0.46958-0.52828-0.25436-0.9196-0.58698t-0.62611-0.80221-0.23479-1.1544q0-1.3501 0.99787-2.1327 0.99787-0.80221 2.7197-0.80221 0.43045 0 0.8609 0.0587 0.43045 0.03913 0.80221 0.1174 0.37175 0.0587 0.64568 0.13696 0.29349 0.07826 0.45002 0.13696l-0.33262 1.5653q-0.29349-0.15653-0.9196-0.31306-0.62611-0.17609-1.5066-0.17609-0.76307 0-1.3305 0.31306-0.56741 0.29349-0.56741 0.93917 0 0.33262 0.1174 0.58698 0.13696 0.25436 0.39132 0.46958 0.27392 0.19566 0.66524 0.37175t0.93917 0.37175q0.72394 0.27392 1.2914 0.54785 0.56741 0.25436 0.95873 0.60655 0.41089 0.35219 0.62611 0.8609 0.21523 0.48915 0.21523 1.2131 0 1.4088-1.0566 2.1327-1.037 0.72394-2.974 0.72394-1.3501 0-2.1131-0.23479-0.76307-0.21523-1.037-0.33262l0.33262-1.5653q0.31306 0.1174 0.99787 0.35219t1.8196 0.23479z"/>
    <path d="m82.972 11.684h3.8545v1.5261h-3.8545v4.6958q0 0.76307 0.1174 1.2718 0.1174 0.48915 0.35219 0.78264 0.23479 0.27392 0.58698 0.39132t0.82177 0.1174q0.82177 0 1.3109-0.17609 0.50872-0.19566 0.70438-0.27392l0.35219 1.5066q-0.27392 0.13696-0.95873 0.33262-0.68481 0.21523-1.5653 0.21523-1.037 0-1.7218-0.25436-0.66524-0.27392-1.0761-0.80221t-0.58698-1.2914q-0.15653-0.78264-0.15653-1.8001v-9.0786l1.8196-0.31306z"/>
   </g>
   <g transform="skewX(-7.5)" aria-label="index">
    <path d="m43.339 41.689h-1.8196v-10.174h1.8196zm-0.9196-12.014q-0.48915 0-0.84134-0.31306-0.33262-0.33262-0.33262-0.88047t0.33262-0.8609q0.35219-0.33262 0.84134-0.33262t0.82177 0.33262q0.35219 0.31306 0.35219 0.8609t-0.35219 0.88047q-0.33262 0.31306-0.82177 0.31306z"/>
    <path d="m46.47 31.808q0.62611-0.15653 1.6631-0.33262t2.3871-0.17609q1.2131 0 2.0153 0.35219 0.80221 0.33262 1.2718 0.95873 0.48915 0.60655 0.68481 1.4674t0.19566 1.8979v5.7133h-1.8196v-5.322q0-0.93917-0.13696-1.6044-0.1174-0.66524-0.41089-1.0761t-0.78264-0.58698q-0.48915-0.19566-1.2131-0.19566-0.29349 0-0.60655 0.01957t-0.60655 0.0587q-0.27392 0.01957-0.50872 0.0587-0.21523 0.03913-0.31306 0.0587v8.5895h-1.8196z"/>
    <path d="m64.275 33.667q-0.33262-0.27392-0.95873-0.52828t-1.3696-0.25436q-0.78264 0-1.3501 0.29349-0.54785 0.27392-0.90004 0.78264-0.35219 0.48915-0.50872 1.174t-0.15653 1.4674q0 1.7805 0.88047 2.7588 0.88047 0.95873 2.3479 0.95873 0.74351 0 1.2327-0.0587 0.50872-0.07826 0.78264-0.15653zm0-6.8481 1.8196-0.31306v14.89q-0.62611 0.17609-1.6044 0.35219t-2.2501 0.17609q-1.174 0-2.1131-0.37175t-1.6044-1.0566-1.037-1.6631q-0.35219-0.99787-0.35219-2.2305 0-1.174 0.29349-2.1523 0.31306-0.9783 0.90004-1.6827t1.4283-1.0957q0.8609-0.39132 1.9566-0.39132 0.88047 0 1.5457 0.23479 0.68481 0.23479 1.0174 0.45002z"/>
    <path d="m68.658 36.621q0-1.3501 0.39132-2.3479 0.39132-1.0174 1.037-1.6827t1.487-0.99787 1.7218-0.33262q2.0544 0 3.1501 1.2914 1.0957 1.2718 1.0957 3.8936 0 0.1174 0 0.31306 0 0.17609-0.01957 0.33262h-6.9655q0.1174 1.5848 0.9196 2.4066t2.5044 0.82177q0.95873 0 1.6044-0.15653 0.66524-0.17609 0.99787-0.33262l0.25436 1.5261q-0.33262 0.17609-1.174 0.37175-0.82177 0.19566-1.8783 0.19566-1.3305 0-2.3088-0.39132-0.95873-0.41089-1.5848-1.1153t-0.93917-1.6631q-0.29349-0.9783-0.29349-2.1327zm6.9851-0.99787q0.01957-1.2327-0.62611-2.0153-0.62611-0.80221-1.7414-0.80221-0.62611 0-1.1153 0.25436-0.46958 0.23479-0.80221 0.62611t-0.52828 0.90004q-0.17609 0.50872-0.23479 1.037z"/>
    <path d="m86.248 41.689q-0.21523-0.43045-0.52828-0.95873t-0.68481-1.0761q-0.37175-0.56741-0.76307-1.1153t-0.76307-1.037q-0.37175 0.48915-0.76307 1.0566-0.39132 0.54785-0.76307 1.1153-0.35219 0.54785-0.66524 1.0761t-0.52828 0.93917h-1.8783q0.68481-1.3305 1.624-2.7001 0.95873-1.3892 1.8979-2.6414l-3.3654-4.8328h2.0544l2.4262 3.561 2.4458-3.561h1.937l-3.2871 4.7154q0.93917 1.2718 1.9175 2.7001 0.99787 1.4088 1.6827 2.7588z"/>
   </g>
   <g transform="skewX(-7.5)" aria-label="space">
    <path d="m102.56 40.394q1.1153 0 1.6436-0.29349 0.54784-0.29349 0.54784-0.93917 0-0.66524-0.52828-1.0566t-1.7414-0.88047q-0.58698-0.23479-1.1348-0.46958-0.52828-0.25436-0.9196-0.58698t-0.62611-0.80221q-0.23479-0.46958-0.23479-1.1544 0-1.3501 0.99787-2.1327 0.99787-0.80221 2.7197-0.80221 0.43046 0 0.86091 0.0587 0.43045 0.03913 0.8022 0.1174 0.37176 0.0587 0.64568 0.13696 0.29349 0.07826 0.45002 0.13696l-0.33262 1.5653q-0.29349-0.15653-0.9196-0.31306-0.62612-0.17609-1.5066-0.17609-0.76307 0-1.3305 0.31306-0.56742 0.29349-0.56742 0.93917 0 0.33262 0.1174 0.58698 0.13696 0.25436 0.39132 0.46958 0.27392 0.19566 0.66524 0.37175t0.93917 0.37175q0.72394 0.27392 1.2914 0.54785 0.56741 0.25436 0.95873 0.60655 0.41089 0.35219 0.62611 0.8609 0.21523 0.48915 0.21523 1.2131 0 1.4088-1.0566 2.1327-1.037 0.72394-2.974 0.72394-1.35 0-2.1131-0.23479-0.76307-0.21523-1.037-0.33262l0.33262-1.5653q0.31305 0.1174 0.99786 0.35219t1.8196 0.23479z"/>
    <path d="m115.98 36.637q0-1.7805-0.88047-2.7392t-2.3479-0.95873q-0.82177 0-1.2914 0.0587-0.45002 0.0587-0.72395 0.13696v6.4176q0.33263 0.27392 0.95874 0.52828t1.3696 0.25436q0.78264 0 1.3305-0.27392 0.56741-0.29349 0.9196-0.78264 0.35219-0.50872 0.50871-1.174 0.15653-0.68481 0.15653-1.4674zm1.8979 0q0 1.1544-0.31305 2.1327-0.29349 0.9783-0.88047 1.6827t-1.4479 1.0957q-0.84133 0.39132-1.937 0.39132-0.88047 0-1.5653-0.23479-0.66524-0.23479-0.99787-0.45002v4.0697h-1.8196v-13.481q0.64567-0.15653 1.6044-0.33262 0.9783-0.19566 2.2501-0.19566 1.174 0 2.1131 0.37175 0.93916 0.37175 1.6044 1.0566 0.66524 0.68481 1.0174 1.6827 0.37175 0.9783 0.37175 2.211z"/>
    <path d="m123.88 40.394q0.64568 0 1.1348-0.01957 0.50872-0.03913 0.84134-0.1174v-3.0327q-0.19566-0.09783-0.64568-0.15653-0.43045-0.07826-1.0566-0.07826-0.41089 0-0.88047 0.0587-0.45002 0.0587-0.84134 0.25436-0.37176 0.17609-0.62611 0.50872-0.25436 0.31306-0.25436 0.84134 0 0.9783 0.62611 1.3696 0.62611 0.37175 1.7022 0.37175zm-0.15653-9.1178q1.0957 0 1.8392 0.29349 0.76307 0.27392 1.2131 0.80221 0.46958 0.50872 0.66524 1.2327 0.19566 0.70438 0.19566 1.5653v6.359q-0.23479 0.03913-0.66524 0.1174-0.41089 0.0587-0.93917 0.1174-0.52828 0.0587-1.1544 0.09783-0.60655 0.0587-1.2131 0.0587-0.86091 0-1.5848-0.17609t-1.2522-0.54785q-0.52829-0.39132-0.82178-1.0174t-0.29349-1.5066q0-0.84134 0.33263-1.4479 0.35218-0.60655 0.93916-0.9783t1.3696-0.54785 1.6436-0.17609q0.27392 0 0.56741 0.03913 0.29349 0.01957 0.54785 0.07826 0.27392 0.03913 0.46958 0.07826t0.27393 0.0587v-0.50872q0-0.45002-0.0978-0.88047-0.0978-0.45002-0.35219-0.78264-0.25436-0.35219-0.70438-0.54785-0.43045-0.21523-1.1348-0.21523-0.90004 0-1.5848 0.13696-0.66524 0.1174-0.99787 0.25436l-0.21522-1.5066q0.35219-0.15653 1.174-0.29349 0.82177-0.15653 1.7805-0.15653z"/>
    <path d="m135.08 41.94q-1.2327 0-2.1718-0.39132-0.9196-0.39132-1.5653-1.0957-0.62611-0.70438-0.93916-1.6631-0.31306-0.9783-0.31306-2.1523t0.33262-2.1523q0.35219-0.9783 0.9783-1.6827 0.62611-0.72394 1.5262-1.1153 0.9196-0.41089 2.0349-0.41089 0.68481 0 1.3696 0.1174t1.3109 0.37175l-0.41089 1.5457q-0.41089-0.19566-0.95873-0.31306-0.52829-0.1174-1.1348-0.1174-1.5262 0-2.3479 0.95873-0.80221 0.95873-0.80221 2.7979 0 0.82177 0.1761 1.5066 0.19566 0.68481 0.58698 1.174 0.41088 0.48915 1.037 0.76307 0.62612 0.25436 1.5262 0.25436 0.72394 0 1.3109-0.13696t0.91961-0.29349l0.25435 1.5261q-0.15652 0.09783-0.45001 0.19566-0.29349 0.07826-0.66525 0.13696-0.37175 0.07826-0.8022 0.1174-0.41089 0.0587-0.80221 0.0587z"/>
    <path d="m139.18 36.637q0-1.3501 0.39132-2.3479 0.39132-1.0174 1.037-1.6827t1.487-0.99787 1.7218-0.33262q2.0544 0 3.1501 1.2914 1.0957 1.2718 1.0957 3.8936 0 0.1174 0 0.31306 0 0.17609-0.0196 0.33262h-6.9655q0.11739 1.5848 0.9196 2.4066 0.8022 0.82177 2.5044 0.82177 0.95873 0 1.6044-0.15653 0.66524-0.17609 0.99786-0.33262l0.25436 1.5261q-0.33262 0.17609-1.174 0.37175-0.82177 0.19566-1.8783 0.19566-1.3305 0-2.3088-0.39132-0.95874-0.41089-1.5848-1.1153t-0.93917-1.6631q-0.29349-0.9783-0.29349-2.1327zm6.9851-0.99787q0.0196-1.2327-0.62612-2.0153-0.62611-0.80221-1.7414-0.80221-0.62611 0-1.1153 0.25436-0.46959 0.23479-0.80221 0.62611t-0.52828 0.90004q-0.17609 0.50872-0.23479 1.037z"/>
   </g>
   <g transform="skewX(-7.5)" aria-label="name">
    <path d="m98.83 11.966q0.62611-0.15653 1.6631-0.33262 1.037-0.17609 2.387-0.17609 1.2131 0 2.0153 0.35219 0.80221 0.33262 1.2718 0.95873 0.48915 0.60655 0.68481 1.4674t0.19566 1.8979v5.7133h-1.8196v-5.322q0-0.93917-0.13696-1.6044-0.11739-0.66524-0.41088-1.0761t-0.78264-0.58698q-0.48915-0.19566-1.2131-0.19566-0.29349 0-0.60654 0.01957-0.31306 0.01957-0.60655 0.0587-0.27392 0.01957-0.50871 0.0587-0.21523 0.03913-0.31306 0.0587v8.5895h-1.8196z"/>
    <path d="m114.15 20.536q0.64568 0 1.1348-0.01957 0.50871-0.03913 0.84134-0.1174v-3.0327q-0.19566-0.09783-0.64568-0.15653-0.43045-0.07826-1.0566-0.07826-0.41088 0-0.88047 0.0587-0.45001 0.0587-0.84133 0.25436-0.37176 0.17609-0.62612 0.50872-0.25435 0.31306-0.25435 0.84134 0 0.9783 0.62611 1.3696 0.62611 0.37175 1.7022 0.37175zm-0.15653-9.1178q1.0957 0 1.8392 0.29349 0.76307 0.27392 1.2131 0.80221 0.46958 0.50872 0.66524 1.2327 0.19566 0.70438 0.19566 1.5653v6.359q-0.23479 0.03913-0.66524 0.1174-0.41089 0.0587-0.93917 0.1174-0.52828 0.0587-1.1544 0.09783-0.60655 0.0587-1.2131 0.0587-0.8609 0-1.5848-0.17609t-1.2522-0.54785q-0.52828-0.39132-0.82177-1.0174t-0.29349-1.5066q0-0.84134 0.33262-1.4479 0.35219-0.60655 0.93917-0.9783t1.3696-0.54785 1.6436-0.17609q0.27392 0 0.56741 0.03913 0.29349 0.01957 0.54785 0.07826 0.27392 0.03913 0.46958 0.07826t0.27393 0.0587v-0.50871q0-0.45002-0.0978-0.88047-0.0978-0.45002-0.35219-0.78264-0.25436-0.35219-0.70438-0.54785-0.43045-0.21523-1.1348-0.21523-0.90003 0-1.5848 0.13696-0.66525 0.1174-0.99787 0.25436l-0.21522-1.5066q0.35218-0.15653 1.174-0.29349 0.82177-0.15653 1.7805-0.15653z"/>
    <path d="m121.57 11.966q0.62611-0.15653 1.6436-0.33262 1.037-0.17609 2.387-0.17609 0.9783 0 1.6435 0.27392 0.66525 0.25436 1.1153 0.76307 0.13697-0.09783 0.43046-0.27392t0.72394-0.33262q0.43045-0.17609 0.95873-0.29349 0.52828-0.13696 1.1348-0.13696 1.174 0 1.9175 0.35219 0.74351 0.33262 1.1544 0.95873 0.43045 0.62611 0.56742 1.487 0.15652 0.8609 0.15652 1.8783v5.7133h-1.8196v-5.322q0-0.90004-0.0978-1.5457-0.0783-0.64568-0.33263-1.0761-0.23479-0.43045-0.66524-0.62611-0.41089-0.21523-1.0761-0.21523-0.9196 0-1.5262 0.25436-0.58698 0.23479-0.8022 0.43045 0.15652 0.50872 0.23479 1.1153 0.0783 0.60655 0.0783 1.2718v5.7133h-1.8196v-5.322q0-0.90004-0.0978-1.5457t-0.35218-1.0761q-0.2348-0.43045-0.66525-0.62611-0.41088-0.21523-1.0566-0.21523-0.27393 0-0.58698 0.01957-0.31306 0.01957-0.60655 0.0587-0.27392 0.01957-0.50871 0.0587-0.2348 0.03913-0.31306 0.0587v8.5895h-1.8196z"/>
    <path d="m138.5 16.779q0-1.3501 0.39132-2.3479 0.39132-1.0174 1.037-1.6827t1.487-0.99787q0.84134-0.33262 1.7218-0.33262 2.0544 0 3.1501 1.2914 1.0957 1.2718 1.0957 3.8936 0 0.1174 0 0.31306 0 0.17609-0.0196 0.33262h-6.9655q0.1174 1.5848 0.9196 2.4066 0.80221 0.82177 2.5044 0.82177 0.95874 0 1.6044-0.15653 0.66525-0.17609 0.99787-0.33262l0.25436 1.5261q-0.33262 0.17609-1.174 0.37175-0.82177 0.19566-1.8783 0.19566-1.3305 0-2.3088-0.39132-0.95873-0.41089-1.5848-1.1153t-0.93917-1.6631q-0.29349-0.9783-0.29349-2.1327zm6.9851-0.99787q0.0196-1.2327-0.62611-2.0153-0.62611-0.80221-1.7414-0.80221-0.62612 0-1.1153 0.25436-0.46958 0.23479-0.8022 0.62611t-0.52828 0.90004q-0.1761 0.50872-0.2348 1.037z"/>
   </g>
 </g>
</svg>
