<svg width="280" height="44" version="1.1" viewBox="0 0 280 44" xmlns="http://www.w3.org/2000/svg">
 <path d="m183.89 1.3984-5.3887 41.203h92.512c3.878 0 7-3.122 7-7v-27.203c0-3.878-3.122-7-7-7z" fill="#4d4d4d"/>
 <path d="m8.9824 1.3984c-3.878 0-7 3.122-7 7v27.203c0 3.878 3.122 7 7 7h169.52l5.3887-41.203z" fill="#a00"/>
 <g transform="matrix(1.0604 0 0 1.0604 21.247 3.8783)" fill="#fff">
  <g transform="skewX(-7.5)" fill="#fff" aria-label="Podcasting 2.0 Certified">
   <path d="m27.07 9.1463q2.8566 0 4.3828 1.0957 1.5457 1.0761 1.5457 3.2284 0 1.174-.43045 2.0153-.41089.82177-1.2131 1.3501-.78264.50872-1.9175.74351t-2.5631.23479h-1.5066v5.0285h-1.8979v-13.364q.80221-.19566 1.7805-.25436.99787-.078264 1.8196-.078264zm.15653 1.6631q-1.2131 0-1.8588.0587v5.322h1.4283q.9783 0 1.7609-.1174.78264-.13696 1.3109-.43045.54785-.31306.84134-.84134t.29349-1.3501q0-.78264-.31306-1.2914-.29349-.50872-.82177-.80221-.50872-.31306-1.1935-.43045t-1.4479-.1174z"/>
   <path d="m43.819 17.755q0 1.2131-.35219 2.1914t-.99787 1.6827q-.62611.70438-1.5066 1.0957-.88047.37175-1.9175.37175t-1.9175-.37175q-.88047-.39132-1.5261-1.0957-.62611-.70438-.9783-1.6827t-.35219-2.1914q0-1.1935.35219-2.1718.35219-.99787.9783-1.7022.64568-.70438 1.5261-1.0761.88047-.39132 1.9175-.39132t1.9175.39132q.88047.37175 1.5066 1.0761.64568.70438.99787 1.7022.35219.9783.35219 2.1718zm-1.8979 0q0-1.7218-.78264-2.7197-.76307-1.0174-2.0936-1.0174t-2.1131 1.0174q-.76307.99787-.76307 2.7197t.76307 2.7392q.78264.99787 2.1131.99787t2.0936-.99787q.78264-1.0174.78264-2.7392z"/>
   <path d="m52.956 14.82q-.33262-.27392-.95873-.52828t-1.3696-.25436q-.78264 0-1.3501.29349-.54785.27392-.90004.78264-.35219.48915-.50872 1.174t-.15653 1.4674q0 1.7805.88047 2.7588.88047.95873 2.3479.95873.74351 0 1.2327-.0587.50872-.07826.78264-.15653zm0-6.8481 1.8196-.31306v14.89q-.62611.17609-1.6044.35219t-2.2501.17609q-1.174 0-2.1131-.37175t-1.6044-1.0566-1.037-1.6631q-.35219-.99787-.35219-2.2305 0-1.174.29349-2.1523.31306-.9783.90004-1.6827t1.4283-1.0957q.8609-.39132 1.9566-.39132.88047 0 1.5457.23479.68481.23479 1.0174.45002z"/>
   <path d="m62.328 23.077q-1.2327 0-2.1718-.39132-.9196-.39132-1.5653-1.0957-.62611-.70438-.93917-1.6631-.31306-.9783-.31306-2.1523t.33262-2.1523q.35219-.9783.9783-1.6827.62611-.72394 1.5261-1.1153.9196-.41089 2.0349-.41089.68481 0 1.3696.1174t1.3109.37175l-.41089 1.5457q-.41089-.19566-.95873-.31306-.52828-.1174-1.1348-.1174-1.5261 0-2.3479.95873-.80221.95873-.80221 2.7979 0 .82177.17609 1.5066.19566.68481.58698 1.174.41089.48915 1.037.76307.62611.25436 1.5261.25436.72394 0 1.3109-.13696t.9196-.29349l.25436 1.5261q-.15653.09783-.45002.19566-.29349.07826-.66524.13696-.37175.07826-.80221.1174-.41089.0587-.80221.0587z"/>
   <path d="m70.448 21.532q.64568 0 1.1348-.01957.50872-.03913.84134-.1174v-3.0327q-.19566-.09783-.64568-.15653-.43045-.07826-1.0566-.07826-.41089 0-.88047.0587-.45002.0587-.84134.25436-.37175.17609-.62611.50872-.25436.31306-.25436.84134 0 .9783.62611 1.3696.62611.37175 1.7022.37175zm-.15653-9.1178q1.0957 0 1.8392.29349.76307.27392 1.2131.80221.46958.50872.66524 1.2327.19566.70438.19566 1.5653v6.359q-.23479.03913-.66524.1174-.41089.0587-.93917.1174-.52828.0587-1.1544.09783-.60655.0587-1.2131.0587-.8609 0-1.5848-.17609t-1.2522-.54785q-.52828-.39132-.82177-1.0174t-.29349-1.5066q0-.84134.33262-1.4479.35219-.60655.93917-.9783t1.3696-.54785 1.6435-.17609q.27392 0 .56741.03913.29349.01957.54785.07826.27392.03913.46958.07826t.27392.0587v-.50871q0-.45002-.09783-.88047-.09783-.45002-.35219-.78264-.25436-.35219-.70438-.54785-.43045-.21523-1.1348-.21523-.90004 0-1.5848.13696-.66524.1174-.99787.25436l-.21523-1.5066q.35219-.15653 1.174-.29349.82177-.15653 1.7805-.15653z"/>
   <path d="m79.585 21.532q1.1153 0 1.6435-.29349.54785-.29349.54785-.93917 0-.66524-.52828-1.0566t-1.7414-.88047q-.58698-.23479-1.1348-.46958-.52828-.25436-.9196-.58698t-.62611-.80221-.23479-1.1544q0-1.3501.99787-2.1327.99787-.80221 2.7197-.80221.43045 0 .8609.0587.43045.03913.80221.1174.37175.0587.64568.13696.29349.07826.45002.13696l-.33262 1.5653q-.29349-.15653-.9196-.31306-.62611-.17609-1.5066-.17609-.76307 0-1.3305.31306-.56741.29349-.56741.93917 0 .33262.1174.58698.13696.25436.39132.46958.27392.19566.66524.37175t.93917.37175q.72394.27392 1.2914.54785.56741.25436.95873.60655.41089.35219.62611.8609.21523.48915.21523 1.2131 0 1.4088-1.0566 2.1327-1.037.72394-2.974.72394-1.3501 0-2.1131-.23479-.76307-.21523-1.037-.33262l.33262-1.5653q.31306.1174.99787.35219t1.8196.23479z"/>
   <path d="m87.647 12.668h3.8545v1.5261h-3.8545v4.6958q0 .76307.1174 1.2718.1174.48915.35219.78264.23479.27392.58698.39132t.82177.1174q.82177 0 1.3109-.17609.50872-.19566.70438-.27392l.35219 1.5066q-.27392.13696-.95873.33262-.68481.21523-1.5653.21523-1.037 0-1.7218-.25436-.66524-.27392-1.0761-.80221t-.58698-1.2914q-.15653-.78264-.15653-1.8001v-9.0786l1.8196-.31306z"/>
   <path d="m95.629 22.843h-1.8196v-10.174h1.8196zm-.9196-12.014q-.48915 0-.84134-.31306-.33262-.33262-.33262-.88047 0-.54785.33262-.8609.35219-.33262.84134-.33262t.82177.33262q.35219.31306.35219.8609 0 .54785-.35219.88047-.33262.31306-.82177.31306z"/>
   <path d="m98.76 12.962q.62611-.15653 1.6631-.33262t2.387-.17609q1.2131 0 2.0153.35219.8022.33262 1.2718.95873.48915.60655.68481 1.4674t.19566 1.8979v5.7133h-1.8196v-5.322q0-.93917-.13696-1.6044-.1174-.66524-.41089-1.0761t-.78264-.58698q-.48915-.19566-1.2131-.19566-.29349 0-.60655.01957-.31305.01957-.60654.0587-.27393.01957-.50872.0587-.21522.03913-.31305.0587v8.5895h-1.8196z"/>
   <path d="m116.37 21.825q-.23479.15653-.9196.41089-.66525.23479-1.5653.23479-.91961 0-1.7414-.29349-.8022-.29349-1.4088-.90004-.60655-.62611-.95873-1.5457-.35219-.9196-.35219-2.1914 0-1.1153.33262-2.0349.33262-.93917.95873-1.6044.64568-.68481 1.5653-1.0566.91961-.39132 2.074-.39132 1.2718 0 2.211.19566.95873.17609 1.6044.33262v9.0786q0 2.3479-1.2131 3.4045t-3.6784 1.0566q-.95873 0-1.8196-.15653-.84134-.15653-1.4674-.37175l.33262-1.5848q.54785.21523 1.3305.37175.80221.17609 1.6631.17609 1.624 0 2.3284-.64568.72394-.64568.72394-2.0544zm-.0196-7.5525q-.27392-.07826-.74351-.13696-.45001-.07826-1.2326-.07826-1.4674 0-2.2697.95873-.78264.95873-.78264 2.5436 0 .88047.21523 1.5066.23479.62611.60654 1.037.39132.41089.88047.60655.50872.19566 1.037.19566.72394 0 1.3305-.19566.60654-.21523.95873-.48915z"/>
   <path d="m133.39 12.746q0 .70438-.29349 1.3696-.27392.64568-.74351 1.2914-.46958.62611-1.0566 1.2522-.58698.60655-1.174 1.1935-.33262.33262-.78264.78264-.43045.45002-.82177.93917t-.66525.93917q-.25436.45002-.25436.78264h6.2416v1.5457h-8.2177q-.0196-.1174-.0196-.23479t0-.21523q0-.9196.29349-1.7022.31306-.80221.80221-1.5066t1.0957-1.3305q.60655-.62611 1.1935-1.2131.48915-.46958.9196-.9196.45002-.46958.78264-.9196.35219-.46958.54785-.95873.21523-.48915.21523-1.037 0-.58698-.19566-.99787-.1761-.41089-.48915-.68481-.31306-.27392-.74351-.39132-.41089-.13696-.88047-.13696-.56742 0-1.037.15653t-.84134.37175q-.37175.19566-.62611.43045-.25436.21523-.39132.33262l-.90004-1.2914q.1761-.19566.52829-.46958.35218-.29349.84133-.54785t1.0957-.43045 1.3109-.17609q2.1327 0 3.1893.99787 1.0761.9783 1.0761 2.7784z"/>
   <path d="m139.01 21.786q0 .52828-.35219.9196t-.95873.39132q-.60655 0-.95874-.39132-.35218-.39132-.35218-.9196t.35218-.9196q.35219-.39132.95874-.39132.60654 0 .95873.39132t.35219.9196z"/>
   <path d="m141.08 16.053q0-3.4045 1.1935-5.2437 1.2131-1.8392 3.3458-1.8392 2.1327 0 3.3262 1.8392 1.2131 1.8392 1.2131 5.2437t-1.2131 5.2437q-1.1935 1.8392-3.3262 1.8392-2.1327 0-3.3458-1.8392-1.1935-1.8392-1.1935-5.2437zm7.1612 0q0-1.1153-.13697-2.1131-.11739-.99787-.43045-1.7414-.29349-.74351-.8022-1.174-.50872-.45002-1.2522-.45002t-1.2522.45002q-.50872.43045-.82177 1.174-.29349.74351-.43046 1.7414-.11739.99787-.11739 2.1131t.11739 2.1131q.13697.99787.43046 1.7414.31305.74351.82177 1.1935.50871.43045 1.2522.43045t1.2522-.43045q.50871-.45002.8022-1.1935.31306-.74351.43045-1.7414.13697-.99787.13697-2.1131z"/>
   <path d="m163.17 23.136q-1.4283 0-2.6023-.46958t-2.0153-1.3696-1.3109-2.211q-.45002-1.3305-.45002-3.0327t.50872-3.0132q.52828-1.3305 1.4088-2.2305.88047-.90004 2.0544-1.3696t2.5044-.46958q.84134 0 1.5066.1174.68481.1174 1.174.27392.50872.15653.82177.31306.31306.15653.43045.23479l-.54784 1.5653q-.1761-.1174-.50872-.25436t-.76307-.27392q-.41089-.13696-.91961-.21523-.48915-.09783-.99786-.09783-1.0761 0-1.937.37175-.8609.37175-1.4674 1.0761-.60654.70438-.93916 1.7218-.31306.99787-.31306 2.2501 0 1.2131.27392 2.211.29349.99787.86091 1.7218.56741.70438 1.4088 1.0957.8609.39132 1.9957.39132 1.3109 0 2.1718-.27392.8609-.27392 1.2914-.48915l.48915 1.5653q-.13696.09783-.48915.25436-.35218.13696-.88047.27392-.52828.13696-1.2326.23479-.70438.09783-1.5262.09783z"/>
   <path d="m168.49 17.775q0-1.3501.39132-2.3479.39132-1.0174 1.037-1.6827.64567-.66524 1.487-.99787t1.7218-.33262q2.0544 0 3.1501 1.2914 1.0957 1.2718 1.0957 3.8936 0 .1174 0 .31306 0 .17609-.0196.33262h-6.9655q.1174 1.5848.9196 2.4066.80221.82177 2.5044.82177.95873 0 1.6044-.15653.66525-.17609.99787-.33262l.25436 1.5261q-.33263.17609-1.174.37175-.82178.19566-1.8783.19566-1.3305 0-2.3088-.39132-.95873-.41089-1.5848-1.1153-.62612-.70438-.93917-1.6631-.29349-.9783-.29349-2.1327zm6.9851-.99787q.0196-1.2327-.62611-2.0153-.62611-.80221-1.7414-.80221-.62611 0-1.1153.25436-.46958.23479-.8022.62611-.33263.39132-.52829.90004-.17609.50872-.23479 1.037z"/>
   <path d="m183.75 12.453q.23479 0 .52828.03913.31305.01957.60654.07826.29349.03913.52829.09783.25435.03913.37175.07826l-.31306 1.5848q-.21522-.07826-.72394-.17609-.48915-.1174-1.2718-.1174-.50871 0-1.0174.1174-.48915.09783-.64568.13696v8.5503h-1.8196v-9.7439q.64568-.23479 1.6044-.43045.95873-.21523 2.1523-.21523z"/>
   <path d="m189.25 12.668h3.8545v1.5261h-3.8545v4.6958q0 .76307.1174 1.2718.11739.48915.35219.78264.23479.27392.58698.39132.35218.1174.82177.1174.82177 0 1.3109-.17609.50872-.19566.70438-.27392l.35218 1.5066q-.27392.13696-.95873.33262-.68481.21523-1.5653.21523-1.037 0-1.7218-.25436-.66524-.27392-1.0761-.80221-.41088-.52828-.58698-1.2914-.15653-.78264-.15653-1.8001v-9.0786l1.8196-.31306z"/>
   <path d="m197.24 22.843h-1.8196v-10.174h1.8196zm-.9196-12.014q-.48915 0-.84134-.31306-.33262-.33262-.33262-.88047 0-.54785.33262-.8609.35219-.33262.84134-.33262t.82177.33262q.35219.31306.35219.8609 0 .54785-.35219.88047-.33262.31306-.82177.31306z"/>
   <path d="m204.34 7.6593q.68481 0 1.174.09783.48915.078264.70437.15653l-.25436 1.5653q-.21522-.078264-.58698-.15653-.37175-.09783-.90003-.09783-1.2718 0-1.7805.70438-.50871.68481-.50871 1.8588v.88047h3.9132v1.5261h-3.9132v8.6482h-1.8196v-11.094q0-1.9566.95873-3.0132.95874-1.0761 3.0132-1.0761zm5.4785 15.183h-1.8196v-10.174h1.8196zm-.91961-12.014q-.48915 0-.84133-.31306-.33263-.33262-.33263-.88047 0-.54785.33263-.8609.35218-.33262.84133-.33262t.82178.33262q.35218.31306.35218.8609 0 .54785-.35218.88047-.33263.31306-.82178.31306z"/>
   <path d="m212.38 17.775q0-1.3501.39132-2.3479.39132-1.0174 1.037-1.6827.64568-.66524 1.487-.99787t1.7218-.33262q2.0544 0 3.1501 1.2914 1.0957 1.2718 1.0957 3.8936 0 .1174 0 .31306 0 .17609-.0196.33262h-6.9655q.11739 1.5848.9196 2.4066t2.5044.82177q.95873 0 1.6044-.15653.66524-.17609.99787-.33262l.25435 1.5261q-.33262.17609-1.174.37175-.82177.19566-1.8783.19566-1.3305 0-2.3088-.39132-.95873-.41089-1.5848-1.1153-.62611-.70438-.93916-1.6631-.29349-.9783-.29349-2.1327zm6.9851-.99787q.0196-1.2327-.62611-2.0153-.62612-.80221-1.7414-.80221-.62611 0-1.1153.25436-.46958.23479-.80221.62611-.33262.39132-.52828.90004-.17609.50872-.23479 1.037z"/>
   <path d="m230.46 14.82q-.33262-.27392-.95873-.52828-.62612-.25436-1.3696-.25436-.78264 0-1.3501.29349-.54785.27392-.90003.78264-.35219.48915-.50872 1.174t-.15653 1.4674q0 1.7805.88047 2.7588.88047.95873 2.3479.95873.74351 0 1.2327-.0587.50872-.07826.78264-.15653zm0-6.8481 1.8196-.31306v14.89q-.62611.17609-1.6044.35219t-2.2501.17609q-1.174 0-2.1131-.37175t-1.6044-1.0566q-.66525-.68481-1.037-1.6631-.35219-.99787-.35219-2.2305 0-1.174.29349-2.1523.31306-.9783.90004-1.6827t1.4283-1.0957q.86091-.39132 1.9566-.39132.88047 0 1.5457.23479.68481.23479 1.0174.45002z"/>
  </g>
 </g>
 <path d="m16.346 12-.15319.16375c-1.3982 1.494-2.2485 3.2398-2.5813 5.2989-.08267.5118-.1148 1.7152-.06111 2.2893.06918.73988.21559 1.4248.47085 2.2033.35302 1.0766.94486 2.1563 1.6604 3.0288.2827.34465.64702.7423.67932.74153.01061-.000262.32502-.30618.69855-.67988l.67912-.6795-.18788-.19316c-1.0053-1.0339-1.7094-2.467-1.993-4.0567-.09312-.52187-.11596-1.6336-.04469-2.179.213-1.6306.89643-3.1185 1.9814-4.314l.22638-.24957-.68744-.68686zm16.728.000395-1.3745 1.3733.21731.2328c.29468.31554.72476.89222.95286 1.2777 1.0551 1.7832 1.3662 3.8891.8664 5.8664-.18836.74533-.50874 1.5179-.89663 2.1626-.20573.34194-.72055 1.0162-.95583 1.2518l-.18506.18544.68554.68724.68554.68744.15035-.14658c.08273-.08053.25134-.26448.37466-.40898 1.1577-1.3565 1.937-3.0621 2.2144-4.8451.09397-.60424.11746-1.9123.04546-2.537-.12972-1.1259-.43262-2.16-.92925-3.1728-.4496-.91691-1.0089-1.7291-1.6661-2.4198zm-2.3145 2.3141-.66554.66572-.66572.66554.12148.14393c.59312.70318.93003 1.365 1.1094 2.179.08059.36578.09741 1.1784.03303 1.5911-.08845.56684-.31751 1.2002-.60385 1.6695-.14073.23066-.47579.67285-.58215.76816-.06441.0577-.06335.05894.59084.73421.36039.37201.66389.67268.6746.66838.01078-.0041.08848-.0842.1728-.1777.72029-.79887 1.2214-1.728 1.491-2.765.5252-2.0194-.01708-4.2714-1.4059-5.8383zm-12.075.03339c-.04049-.008-.09137.04972-.28504.27354-.32246.37265-.45922.55894-.68647.93588-.41092.68157-.68499 1.4245-.83853 2.2719-.06693.36935-.09387 1.3113-.04867 1.7028.15621 1.3536.70456 2.6061 1.5677 3.5799l.27184.30654.65894-.67253.65912-.67253-.15129-.17505c-.5326-.61598-.88221-1.317-1.063-2.1319-.09021-.40643-.09717-1.3043-.01323-1.72.16942-.83874.55443-1.6249 1.0718-2.1887l.19242-.20958-.61422-.60932c-.33787-.33518-.64364-.63427-.6795-.66459-.01616-.01355-.02839-.02354-.04188-.02622zm2.1904 2.1522-.07735.09263c-.25178.3022-.53862.91318-.66402 1.4141-.09036.36093-.11387 1.0837-.04753 1.4645.0572.32829.17453.71656.30126.9969.0941.20823.41714.71421.45596.71421.01241 0 .19388-.17316.40314-.38483l.3805-.38483-.06299-.10187c-.56979-.92195-.56356-1.9907.0168-2.9099l.07659-.12148-.39105-.38975zm7.6796.01519c-.04286 0-.75271.72767-.75271.77154 0 .02673.03626.10224.08074.16772.50796.74754.53536 1.8873.06507 2.7103l-.13374.23429.37257.38975c.20491.2144.38183.39081.39314.39182.01143.0011.06926-.06464.12884-.14581.1556-.21197.34875-.58085.45106-.86151.37246-1.0218.28655-2.1822-.23166-3.1268-.11145-.20315-.342-.53123-.37334-.53123zm-3.7712.20732c-.18981.000525-.38054.01868-.52047.05454-.60722.15547-1.1344.58191-1.4166 1.146-.52901 1.0576-.0899 2.3385.98929 2.8858.32972.16725.59071.22059 1.0145.20751.27181-.0083.42867-.02968.58725-.07979.64743-.20467 1.1653-.71753 1.4062-1.3923.09738-.27298.12319-.88255.04983-1.1758-.19479-.77832-.80756-1.3906-1.595-1.5938-.13624-.03519-.32519-.05254-.515-.05207zm-1.2343 5.1709-.08564.65667c-.12997.99631-.407 3.0977-.5614 4.2575-.17487 1.3136-.44794 3.3862-.57007 4.327-.05184.39948-.10141.75761-.10998.7959l-.01551.06943h2.3783l.0168-.10037c.0093-.05525.03729-.26048.06244-.45596s.1082-.82839.18449-1.4063c.07627-.57797.21608-1.6418.31069-2.3643.23486-1.7938.45421-3.4608.61912-4.7027.07596-.57214.13828-1.0484.13828-1.0585 0-.01012-.53273-.0183-1.1838-.0183z" fill="#fff"/>
</svg>
